<svg xmlns="http://www.w3.org/2000/svg" width="1200" height="760" viewBox="0 0 1200 760" role="img" aria-labelledby="title desc">
<title id="title">Colette Drive family neighborhood in Franconia, Fairfax County</title>
<desc id="desc">Present-day Fairfax County streets and approximate Census geocoder locations for John and Alice Weatherford at 6307 Colette Drive, Gladys Smith at 6330 Miller Drive, and Florence Weatherford at 6312 Miller Drive. Family relationships and residences are family-supplied; county parcel records independently connect the names to the addresses.</desc>
<style>text{font-family:Segoe UI,Arial,sans-serif;fill:#233a49}.title{font-size:29px;font-weight:700}.sub{font-size:15px;fill:#526b73}.roadlabel{font-size:16px;font-weight:700;fill:#3f5861}.label{font-size:18px;font-weight:700}.body{font-size:15px}.small{font-size:13px;fill:#526b73}</style>
<rect width="1200" height="760" fill="#f7faf7"/>
<text x="44" y="48" class="title">Three family homes in one neighborhood</text>
<text x="44" y="72" class="sub">Alexandria mailing address · Franconia, Fairfax County · current street layout</text>
<rect x="44" y="98" width="888" height="610" rx="16" fill="#e5eee5" stroke="#c4d5ca"/>
<clipPath id="mapclip"><rect x="44" y="98" width="888" height="610" rx="16"/></clipPath>
<g clip-path="url(#mapclip)">
<path d="M 634.9,684.1 L 622.1,693.9 L 619.4,696.1 L 609.1,707.1 L 600.8,717.0 L 593.2,727.4" fill="none" stroke="#cfb987" stroke-width="8" stroke-linecap="round" stroke-linejoin="round"/>
<path d="M 45.9,108.7 L 61.3,120.3 L 63.2,124.6 L 64.1,129.9 L 63.0,135.6 L 60.4,141.6 L 56.2,145.8 L 51.2,147.4 L 33.1,148.1 L 21.7,148.2 L 18.6,146.7 L 17.4,143.2 L 16.3,133.9 L 13.7,125.9" fill="none" stroke="#fffdf7" stroke-width="5" stroke-linecap="round" stroke-linejoin="round"/>
<path d="M 293.7,348.2 L 282.0,340.7" fill="none" stroke="#fffdf7" stroke-width="5" stroke-linecap="round" stroke-linejoin="round"/>
<path d="M 551.2,414.6 L 537.2,410.1 L 516.3,402.5 L 456.0,379.1" fill="none" stroke="#fffdf7" stroke-width="5" stroke-linecap="round" stroke-linejoin="round"/>
<path d="M 304.6,151.8 L 323.0,131.3 L 331.7,119.6 L 332.6,117.4 L 332.8,115.1 L 332.4,113.0 L 330.6,110.1 L 328.3,107.3 L 319.1,99.5 L 312.1,94.2 L 298.1,84.8 L 295.7,83.4 L 293.0,82.5 L 279.7,82.2" fill="none" stroke="#fffdf7" stroke-width="5" stroke-linecap="round" stroke-linejoin="round"/>
<path d="M 144.5,660.6 L 155.5,664.3" fill="none" stroke="#fffdf7" stroke-width="5" stroke-linecap="round" stroke-linejoin="round"/>
<path d="M 235.9,484.0 L 223.3,478.8" fill="none" stroke="#fffdf7" stroke-width="5" stroke-linecap="round" stroke-linejoin="round"/>
<path d="M 908.6,381.3 L 924.3,388.5 L 929.0,391.3 L 934.2,395.0 L 939.7,399.5 L 947.7,407.4" fill="none" stroke="#fffdf7" stroke-width="5" stroke-linecap="round" stroke-linejoin="round"/>
<path d="M 926.8,190.4 L 918.9,205.8" fill="none" stroke="#fffdf7" stroke-width="5" stroke-linecap="round" stroke-linejoin="round"/>
<path d="M 771.3,114.6 L 741.4,156.4 L 714.0,186.8 L 710.8,190.9 L 709.3,193.2 L 707.8,195.9 L 695.8,222.7" fill="none" stroke="#fffdf7" stroke-width="5" stroke-linecap="round" stroke-linejoin="round"/>
<path d="M 293.7,348.2 L 328.0,260.2 L 344.6,230.5 L 364.3,204.0" fill="none" stroke="#cfb987" stroke-width="8" stroke-linecap="round" stroke-linejoin="round"/>
<path d="M 279.7,82.2 L 279.1,93.7 L 279.5,97.6 L 280.2,102.3 L 282.0,110.7 L 284.4,118.5 L 287.6,126.7 L 290.8,133.1 L 295.1,139.8 L 304.6,151.8" fill="none" stroke="#fffdf7" stroke-width="5" stroke-linecap="round" stroke-linejoin="round"/>
<path d="M 420.1,684.5 L 368.3,665.2 L 353.3,659.6 L 343.1,655.8" fill="none" stroke="#fffdf7" stroke-width="5" stroke-linecap="round" stroke-linejoin="round"/>
<path d="M 575.5,692.2 L 587.8,701.6 L 588.8,705.8 L 588.1,710.5 L 584.9,716.3 L 583.3,721.9" fill="none" stroke="#fffdf7" stroke-width="5" stroke-linecap="round" stroke-linejoin="round"/>
<path d="M 754.3,435.2 L 756.1,434.8 L 765.8,421.9 L 772.8,411.7 L 783.3,386.8 L 783.7,378.7" fill="none" stroke="#fffdf7" stroke-width="5" stroke-linecap="round" stroke-linejoin="round"/>
<path d="M 910.8,161.6 L 917.6,165.9 L 922.9,169.3 L 928.5,173.8 L 933.8,178.6 L 936.2,181.3 L 938.1,183.4 L 941.7,188.0 L 942.8,189.3 L 946.8,195.5 L 950.5,201.9 L 953.7,209.2 L 956.7,217.4 L 958.5,224.2" fill="none" stroke="#fffdf7" stroke-width="5" stroke-linecap="round" stroke-linejoin="round"/>
<path d="M 598.1,731.2 L 604.7,721.3 L 612.8,711.3 L 623.3,700.4 L 626.0,698.1 L 638.2,690.0" fill="none" stroke="#cfb987" stroke-width="8" stroke-linecap="round" stroke-linejoin="round"/>
<path d="M 771.3,114.6 L 788.8,123.1 L 809.5,131.1 L 829.5,138.0 L 843.0,142.1 L 858.9,146.4" fill="none" stroke="#fffdf7" stroke-width="5" stroke-linecap="round" stroke-linejoin="round"/>
<path d="M 905.8,592.2 L 920.6,583.4 L 932.6,576.9 L 951.0,566.0 L 974.0,551.4 L 987.9,541.6 L 1003.8,529.3" fill="none" stroke="#cfb987" stroke-width="8" stroke-linecap="round" stroke-linejoin="round"/>
<path d="M 638.2,690.0 L 646.1,685.8 L 658.5,679.9 L 670.4,675.7 L 680.6,673.3 L 716.2,666.1 L 728.5,662.7 L 740.0,658.9 L 873.2,606.6 L 905.8,592.2" fill="none" stroke="#cfb987" stroke-width="8" stroke-linecap="round" stroke-linejoin="round"/>
<path d="M 84.9,676.9 L 72.6,680.4 L 56.1,685.4 L 50.9,687.4 L 46.7,689.4 L 40.0,693.5 L 34.4,697.8 L 22.8,708.9" fill="none" stroke="#fffdf7" stroke-width="5" stroke-linecap="round" stroke-linejoin="round"/>
<path d="M 127.8,88.2 L 130.4,96.5 L 132.8,103.8" fill="none" stroke="#fffdf7" stroke-width="5" stroke-linecap="round" stroke-linejoin="round"/>
<path d="M 112.4,568.5 L 110.4,579.9 L 74.4,573.0 L 68.1,573.1 L 60.8,574.7 L 60.8,574.9" fill="none" stroke="#fffdf7" stroke-width="5" stroke-linecap="round" stroke-linejoin="round"/>
<path d="M 78.0,862.6 L 79.1,850.6 L 81.1,841.3 L 84.6,829.4 L 90.8,812.3 L 121.3,741.9 L 130.7,723.2 L 140.6,700.9 L 155.5,664.3" fill="none" stroke="#cfb987" stroke-width="8" stroke-linecap="round" stroke-linejoin="round"/>
<path d="M 256.7,701.3 L 261.2,688.8 L 264.9,678.4" fill="none" stroke="#fffdf7" stroke-width="5" stroke-linecap="round" stroke-linejoin="round"/>
<path d="M 327.7,381.7 L 322.9,370.6 L 321.9,368.5 L 318.6,363.9 L 316.6,361.6 L 314.3,359.4 L 312.1,357.5 L 310.4,356.5 L 293.7,348.2" fill="none" stroke="#fffdf7" stroke-width="5" stroke-linecap="round" stroke-linejoin="round"/>
<path d="M 783.7,378.7 L 759.1,367.8 L 735.6,358.2 L 730.8,356.8 L 729.8,356.7 L 728.4,357.0 L 727.1,357.5 L 726.3,358.4 L 725.1,361.1 L 716.2,380.7 L 705.0,407.2 L 704.8,408.4 L 705.3,409.5 L 706.0,410.4 L 707.1,411.1 L 725.1,421.3 L 751.3,435.8 L 754.3,435.2" fill="none" stroke="#fffdf7" stroke-width="5" stroke-linecap="round" stroke-linejoin="round"/>
<path d="M 447.7,140.3 L 458.4,130.5 L 471.5,117.1 L 478.8,108.7 L 486.0,100.0 L 499.8,81.5 L 515.9,58.2 L 528.6,40.6 L 541.5,24.8 L 551.3,12.1 L 570.1,-14.0 L 589.9,-43.8" fill="none" stroke="#cfb987" stroke-width="8" stroke-linecap="round" stroke-linejoin="round"/>
<path d="M 235.9,484.0 L 269.7,401.6 L 293.7,348.2" fill="none" stroke="#cfb987" stroke-width="8" stroke-linecap="round" stroke-linejoin="round"/>
<path d="M 958.2,453.6 L 933.0,463.2 L 914.8,472.3 L 909.6,471.1 L 892.7,448.9 L 879.8,433.6 L 876.6,428.4 L 891.0,395.3 L 894.6,390.1 L 899.1,390.6 L 903.1,392.6" fill="none" stroke="#fffdf7" stroke-width="5" stroke-linecap="round" stroke-linejoin="round"/>
<path d="M 281.7,709.6 L 284.4,703.4 L 290.1,687.7" fill="none" stroke="#fffdf7" stroke-width="5" stroke-linecap="round" stroke-linejoin="round"/>
<path d="M 344.6,431.4 L 345.3,439.7 L 344.4,445.2 L 342.7,451.0 L 336.9,466.8 L 333.2,475.7 L 330.6,484.1 L 329.5,490.3 L 329.0,495.0 L 329.0,504.0" fill="none" stroke="#fffdf7" stroke-width="5" stroke-linecap="round" stroke-linejoin="round"/>
<path d="M 576.3,522.8 L 568.8,519.3 L 565.9,517.4 L 563.1,515.0 L 546.1,498.0" fill="none" stroke="#fffdf7" stroke-width="5" stroke-linecap="round" stroke-linejoin="round"/>
<path d="M 858.9,146.4 L 863.9,127.6" fill="none" stroke="#fffdf7" stroke-width="5" stroke-linecap="round" stroke-linejoin="round"/>
<path d="M 935.4,321.6 L 921.2,316.3 L 914.4,314.1" fill="none" stroke="#fffdf7" stroke-width="5" stroke-linecap="round" stroke-linejoin="round"/>
<path d="M 57.1,615.0 L 56.7,627.8" fill="none" stroke="#fffdf7" stroke-width="5" stroke-linecap="round" stroke-linejoin="round"/>
<path d="M 865.5,317.4 L 865.5,321.9 L 869.8,351.6" fill="none" stroke="#fffdf7" stroke-width="5" stroke-linecap="round" stroke-linejoin="round"/>
<path d="M 944.4,220.0 L 918.9,205.8" fill="none" stroke="#fffdf7" stroke-width="5" stroke-linecap="round" stroke-linejoin="round"/>
<path d="M 903.1,392.6 L 908.6,381.3" fill="none" stroke="#fffdf7" stroke-width="5" stroke-linecap="round" stroke-linejoin="round"/>
<path d="M 907.0,310.5 L 865.5,317.4" fill="none" stroke="#fffdf7" stroke-width="5" stroke-linecap="round" stroke-linejoin="round"/>
<path d="M 56.7,627.8 L 56.1,627.8 L 45.7,627.9 L 33.3,627.8 L 5.4,633.1 L -20.3,641.7" fill="none" stroke="#fffdf7" stroke-width="5" stroke-linecap="round" stroke-linejoin="round"/>
<path d="M 240.0,704.3 L 234.4,706.7 L 222.8,713.3" fill="none" stroke="#fffdf7" stroke-width="5" stroke-linecap="round" stroke-linejoin="round"/>
<path d="M 914.4,314.1 L 907.2,310.2 L 907.0,310.5" fill="none" stroke="#fffdf7" stroke-width="5" stroke-linecap="round" stroke-linejoin="round"/>
<path d="M 343.1,655.8 L 323.9,648.7 L 308.1,642.8 L 293.8,637.2 L 282.4,632.0 L 280.5,631.1 L 271.7,627.0" fill="none" stroke="#fffdf7" stroke-width="5" stroke-linecap="round" stroke-linejoin="round"/>
<path d="M 669.1,145.8 L 667.2,148.1 L 662.3,156.1 L 661.3,158.3 L 659.9,163.8 L 659.3,167.0 L 657.3,184.6 L 656.1,213.5 L 654.9,226.7" fill="none" stroke="#fffdf7" stroke-width="5" stroke-linecap="round" stroke-linejoin="round"/>
<path d="M 955.2,275.2 L 952.2,283.0 L 935.4,321.6" fill="none" stroke="#fffdf7" stroke-width="5" stroke-linecap="round" stroke-linejoin="round"/>
<path d="M 281.7,709.6 L 279.1,715.9 L 273.7,731.4" fill="none" stroke="#fffdf7" stroke-width="5" stroke-linecap="round" stroke-linejoin="round"/>
<path d="M 903.1,392.6 L 907.8,395.1 L 916.9,398.7 L 925.9,405.4 L 931.7,409.9 L 938.8,418.0 L 945.8,426.3 L 950.4,436.4 L 958.2,453.6" fill="none" stroke="#fffdf7" stroke-width="5" stroke-linecap="round" stroke-linejoin="round"/>
<path d="M 185.8,594.6 L 186.8,592.3 L 195.8,570.1 L 196.0,569.8" fill="none" stroke="#cfb987" stroke-width="8" stroke-linecap="round" stroke-linejoin="round"/>
<path d="M 546.1,498.0 L 551.5,482.2 L 559.5,461.9 L 560.4,458.0 L 561.1,453.9 L 561.4,447.7 L 561.2,443.8 L 560.6,439.3 L 559.7,435.2 L 557.9,429.1 L 551.2,414.6" fill="none" stroke="#fffdf7" stroke-width="5" stroke-linecap="round" stroke-linejoin="round"/>
<path d="M 1001.4,524.5 L 985.5,536.9 L 971.6,546.6 L 948.8,561.2 L 930.3,572.2 L 902.9,586.2" fill="none" stroke="#cfb987" stroke-width="8" stroke-linecap="round" stroke-linejoin="round"/>
<path d="M 248.9,589.8 L 232.5,584.1 L 214.2,576.7 L 196.0,569.8" fill="none" stroke="#fffdf7" stroke-width="5" stroke-linecap="round" stroke-linejoin="round"/>
<path d="M 918.9,205.8 L 905.0,233.1 L 900.5,243.1 L 898.3,249.1 L 898.1,251.5 L 898.4,252.7 L 901.5,255.1 L 905.6,257.6 L 916.6,262.6 L 931.2,268.1 L 955.2,275.2" fill="none" stroke="#fffdf7" stroke-width="5" stroke-linecap="round" stroke-linejoin="round"/>
<path d="M 634.9,684.1 L 638.2,690.0" fill="none" stroke="#fffdf7" stroke-width="5" stroke-linecap="round" stroke-linejoin="round"/>
<path d="M 340.4,180.9 L 357.4,196.0" fill="none" stroke="#fffdf7" stroke-width="5" stroke-linecap="round" stroke-linejoin="round"/>
<path d="M 447.7,140.3 L 442.1,133.3" fill="none" stroke="#fffdf7" stroke-width="5" stroke-linecap="round" stroke-linejoin="round"/>
<path d="M 670.0,655.4 L 656.0,623.0 L 652.3,617.6 L 632.9,611.0 L 604.5,623.3 L 611.9,643.6 L 626.4,672.5 L 634.9,684.1" fill="none" stroke="#fffdf7" stroke-width="5" stroke-linecap="round" stroke-linejoin="round"/>
<path d="M 814.0,322.9 L 819.0,350.9 L 823.1,364.1" fill="none" stroke="#fffdf7" stroke-width="5" stroke-linecap="round" stroke-linejoin="round"/>
<path d="M 155.5,664.3 L 175.4,675.8 L 183.2,681.6 L 190.4,688.0 L 196.1,693.6 L 201.0,699.2 L 208.0,708.7 L 214.9,719.1" fill="none" stroke="#cfb987" stroke-width="8" stroke-linecap="round" stroke-linejoin="round"/>
<path d="M 654.9,226.7 L 647.2,226.7 L 626.4,225.6 L 590.5,224.6 L 582.2,223.6 L 569.4,221.3 L 545.0,215.8" fill="none" stroke="#fffdf7" stroke-width="5" stroke-linecap="round" stroke-linejoin="round"/>
<path d="M 174.8,590.4 L 148.6,652.6" fill="none" stroke="#cfb987" stroke-width="8" stroke-linecap="round" stroke-linejoin="round"/>
<path d="M 914.4,314.1 L 914.0,336.5" fill="none" stroke="#fffdf7" stroke-width="5" stroke-linecap="round" stroke-linejoin="round"/>
<path d="M 357.4,196.0 L 344.3,211.5 L 319.6,250.8" fill="none" stroke="#cfb987" stroke-width="8" stroke-linecap="round" stroke-linejoin="round"/>
<path d="M 148.6,652.6 L 144.5,660.6" fill="none" stroke="#cfb987" stroke-width="8" stroke-linecap="round" stroke-linejoin="round"/>
<path d="M 331.0,731.4 L 340.9,707.1" fill="none" stroke="#fffdf7" stroke-width="5" stroke-linecap="round" stroke-linejoin="round"/>
<path d="M 968.9,590.0 L 966.4,590.9 L 945.7,598.8 L 926.3,605.1 L 918.4,606.0 L 913.9,604.4 L 910.4,602.2 L 905.8,592.2" fill="none" stroke="#fffdf7" stroke-width="5" stroke-linecap="round" stroke-linejoin="round"/>
<path d="M 319.6,250.8 L 310.4,245.6 L 278.7,224.5 L 256.7,210.5 L 239.6,198.7 L 222.9,187.8 L 162.5,143.5 L 144.6,132.3 L 143.2,131.0 L 137.5,124.4 L 135.4,112.6 L 132.8,103.8" fill="none" stroke="#fffdf7" stroke-width="5" stroke-linecap="round" stroke-linejoin="round"/>
<path d="M 654.9,226.7 L 653.5,234.3 L 650.1,243.6 L 636.6,266.8 L 631.5,276.6 L 621.9,292.1 L 611.1,312.3 L 572.9,378.1 L 562.9,396.2 L 551.2,414.6" fill="none" stroke="#fffdf7" stroke-width="5" stroke-linecap="round" stroke-linejoin="round"/>
<path d="M 60.8,574.9 L 57.1,572.0 L 51.6,567.7 L 47.9,564.0 L 47.7,563.8" fill="none" stroke="#fffdf7" stroke-width="5" stroke-linecap="round" stroke-linejoin="round"/>
<path d="M 357.4,196.0 L 364.3,204.0" fill="none" stroke="#fffdf7" stroke-width="5" stroke-linecap="round" stroke-linejoin="round"/>
<path d="M 823.1,364.1 L 824.8,363.6 L 831.7,362.2 L 837.9,361.5 L 845.2,361.2 L 853.5,361.6 L 864.7,363.4 L 875.4,366.5 L 908.6,381.3" fill="none" stroke="#fffdf7" stroke-width="5" stroke-linecap="round" stroke-linejoin="round"/>
<path d="M 155.5,664.3 L 158.7,655.7" fill="none" stroke="#cfb987" stroke-width="8" stroke-linecap="round" stroke-linejoin="round"/>
<path d="M 158.7,655.7 L 148.6,652.6" fill="none" stroke="#fffdf7" stroke-width="5" stroke-linecap="round" stroke-linejoin="round"/>
<path d="M 282.0,340.7 L 249.5,417.7" fill="none" stroke="#cfb987" stroke-width="8" stroke-linecap="round" stroke-linejoin="round"/>
<path d="M 144.5,660.6 L 129.5,696.3 L 119.6,718.5 L 110.2,737.2 L 79.7,807.7 L 73.4,824.7 L 69.9,836.6 L 67.9,845.9 L 66.4,860.9" fill="none" stroke="#cfb987" stroke-width="8" stroke-linecap="round" stroke-linejoin="round"/>
<path d="M 60.8,574.9 L 58.9,594.7 L 57.5,604.3 L 57.1,615.0" fill="none" stroke="#fffdf7" stroke-width="5" stroke-linecap="round" stroke-linejoin="round"/>
<path d="M 855.0,159.8 L 819.6,150.0 L 816.8,149.6 L 814.0,150.2 L 811.8,151.7 L 810.2,153.6 L 790.2,198.0 L 788.9,201.7 L 789.0,204.9 L 790.6,207.2 L 793.3,208.4 L 843.7,230.2 L 844.8,230.7 L 846.2,231.0 L 847.8,230.9" fill="none" stroke="#fffdf7" stroke-width="5" stroke-linecap="round" stroke-linejoin="round"/>
<path d="M 223.3,478.8 L 217.7,476.7 L 211.4,473.5 L 201.3,467.9 L 195.9,464.3 L 105.3,387.6 L 94.6,379.1 L 79.1,369.9 L 37.9,347.8 L 30.1,342.5 L 26.8,339.6" fill="none" stroke="#fffdf7" stroke-width="5" stroke-linecap="round" stroke-linejoin="round"/>
<path d="M 858.9,146.4 L 855.0,159.8" fill="none" stroke="#fffdf7" stroke-width="5" stroke-linecap="round" stroke-linejoin="round"/>
<path d="M 304.6,151.8 L 312.2,158.7 L 318.8,164.2 L 340.4,180.9" fill="none" stroke="#fffdf7" stroke-width="5" stroke-linecap="round" stroke-linejoin="round"/>
<path d="M 240.0,704.3 L 236.4,694.7 L 235.6,693.3 L 234.2,691.6 L 232.3,690.3 L 221.2,686.5 L 216.2,684.5 L 213.3,682.8 L 211.5,681.7 L 209.6,680.0 L 208.8,678.5 L 208.4,676.5 L 208.5,674.3 L 209.2,668.6 L 212.0,660.8" fill="none" stroke="#fffdf7" stroke-width="5" stroke-linecap="round" stroke-linejoin="round"/>
<path d="M 47.7,563.8 L 43.3,568.3 L 21.5,580.4 L 15.6,587.2" fill="none" stroke="#fffdf7" stroke-width="5" stroke-linecap="round" stroke-linejoin="round"/>
<path d="M 305.5,722.3 L 281.7,709.6" fill="none" stroke="#fffdf7" stroke-width="5" stroke-linecap="round" stroke-linejoin="round"/>
<path d="M 319.6,250.8 L 282.0,340.7" fill="none" stroke="#cfb987" stroke-width="8" stroke-linecap="round" stroke-linejoin="round"/>
<path d="M 364.3,204.0 L 377.8,189.0 L 386.8,182.2 L 411.0,162.8 L 420.8,157.5 L 434.2,149.4 L 438.0,147.1 L 447.7,140.3" fill="none" stroke="#cfb987" stroke-width="8" stroke-linecap="round" stroke-linejoin="round"/>
<path d="M 545.0,215.8 L 532.0,212.6 L 523.9,210.2 L 520.6,208.8 L 518.1,207.5 L 515.6,205.9 L 464.4,158.9 L 447.7,140.3" fill="none" stroke="#fffdf7" stroke-width="5" stroke-linecap="round" stroke-linejoin="round"/>
<path d="M 935.4,321.6 L 913.3,371.9 L 908.6,381.3" fill="none" stroke="#fffdf7" stroke-width="5" stroke-linecap="round" stroke-linejoin="round"/>
<path d="M 456.0,379.1 L 408.8,361.6 L 402.5,360.1 L 399.4,359.9 L 396.1,359.7 L 390.5,360.3 L 384.3,361.5 L 357.3,371.9 L 343.1,376.8 L 332.7,380.2 L 327.7,381.7" fill="none" stroke="#fffdf7" stroke-width="5" stroke-linecap="round" stroke-linejoin="round"/>
<path d="M 950.3,329.0 L 935.4,321.6" fill="none" stroke="#fffdf7" stroke-width="5" stroke-linecap="round" stroke-linejoin="round"/>
<path d="M 924.1,100.2 L 924.9,104.7 L 918.5,142.0" fill="none" stroke="#fffdf7" stroke-width="5" stroke-linecap="round" stroke-linejoin="round"/>
<path d="M 581.4,-50.8 L 561.3,-21.0 L 542.4,5.0 L 532.9,17.8 L 520.0,33.4 L 507.1,51.1 L 491.0,74.5 L 477.2,92.9 L 470.8,102.4 L 462.6,113.0 L 442.1,133.3" fill="none" stroke="#cfb987" stroke-width="8" stroke-linecap="round" stroke-linejoin="round"/>
<path d="M -9.2,275.7 L -0.3,276.2 L 4.5,277.0 L 9.6,279.2 L 40.7,299.1 L 41.9,302.2 L 42.3,305.9 L 41.0,309.4 L 26.8,339.6" fill="none" stroke="#fffdf7" stroke-width="5" stroke-linecap="round" stroke-linejoin="round"/>
<path d="M 546.1,498.0 L 530.9,487.4 L 526.3,485.0 L 521.2,482.6 L 497.9,473.1 L 492.5,471.4 L 483.8,469.5 L 478.2,468.9 L 471.8,468.8 L 464.9,469.1 L 440.0,472.3 L 433.9,472.7 L 429.2,472.5 L 424.4,471.8 L 412.0,468.4 L 373.6,453.7 L 368.4,452.2 L 357.3,446.8 L 353.0,443.9 L 349.5,440.5 L 347.2,437.2 L 344.6,431.4" fill="none" stroke="#fffdf7" stroke-width="5" stroke-linecap="round" stroke-linejoin="round"/>
<path d="M 858.9,146.4 L 895.3,155.8 L 903.3,158.6 L 910.8,161.6" fill="none" stroke="#fffdf7" stroke-width="5" stroke-linecap="round" stroke-linejoin="round"/>
<path d="M 918.5,142.0 L 927.0,143.0 L 946.1,143.9 L 950.9,146.8 L 954.9,151.2 L 958.9,162.7 L 958.0,166.8 L 954.3,169.1 L 945.1,173.8" fill="none" stroke="#fffdf7" stroke-width="5" stroke-linecap="round" stroke-linejoin="round"/>
<path d="M 740.6,86.2 L 752.4,98.2 L 771.3,114.6" fill="none" stroke="#fffdf7" stroke-width="5" stroke-linecap="round" stroke-linejoin="round"/>
<path d="M 158.7,655.7 L 185.8,594.6" fill="none" stroke="#cfb987" stroke-width="8" stroke-linecap="round" stroke-linejoin="round"/>
<path d="M 141.7,622.0 L 131.9,629.7 L 125.8,630.2 L 118.0,628.2 L 108.3,625.0 L 88.2,619.7 L 76.2,617.6 L 64.4,616.3 L 57.1,615.0" fill="none" stroke="#fffdf7" stroke-width="5" stroke-linecap="round" stroke-linejoin="round"/>
<path d="M 57.1,615.0 L 36.4,615.7 L 15.8,619.0" fill="none" stroke="#fffdf7" stroke-width="5" stroke-linecap="round" stroke-linejoin="round"/>
<path d="M 47.7,563.8 L 32.6,542.4 L 24.9,531.4 L 22.7,528.7 L 20.0,526.5 L 17.3,524.8 L -0.4,514.9 L -4.7,513.2 L -7.4,512.7 L -10.3,513.0 L -11.8,513.5 L -13.2,514.2 L -44.3,536.0" fill="none" stroke="#fffdf7" stroke-width="5" stroke-linecap="round" stroke-linejoin="round"/>
<path d="M 329.0,504.0 L 320.0,504.1 L 311.7,505.6 L 305.0,506.8 L 298.0,507.8 L 291.7,507.9 L 285.5,507.3 L 281.6,506.5 L 278.5,505.7 L 271.7,503.0 L 266.1,499.8 L 256.0,493.2 L 235.9,484.0" fill="none" stroke="#fffdf7" stroke-width="5" stroke-linecap="round" stroke-linejoin="round"/>
<path d="M 249.5,417.7 L 223.3,478.8" fill="none" stroke="#cfb987" stroke-width="8" stroke-linecap="round" stroke-linejoin="round"/>
<path d="M 907.0,310.5 L 893.9,305.2 L 869.1,300.3 L 865.5,317.4" fill="none" stroke="#fffdf7" stroke-width="5" stroke-linecap="round" stroke-linejoin="round"/>
<path d="M -16.2,649.5 L 7.1,641.8 L 19.4,638.0 L 30.5,636.3 L 41.5,635.3 L 51.9,635.0 L 61.6,635.5 L 76.7,637.3 L 88.3,639.6 L 105.5,644.7 L 128.6,653.9 L 144.5,660.6" fill="none" stroke="#fffdf7" stroke-width="5" stroke-linecap="round" stroke-linejoin="round"/>
<path d="M 282.0,340.7 L 264.0,332.5 L 255.0,327.3 L 246.8,321.8 L 217.0,301.3 L 188.4,280.7 L 180.4,273.8 L 139.7,246.3 L 93.2,212.9" fill="none" stroke="#fffdf7" stroke-width="5" stroke-linecap="round" stroke-linejoin="round"/>
<path d="M 261.0,566.4 L 336.1,594.0 L 338.2,594.8 L 339.8,595.5 L 341.9,596.8 L 343.7,598.1 L 346.1,600.2 L 348.8,603.2 L 351.0,606.5 L 352.6,610.1 L 353.6,613.4 L 354.1,616.9 L 354.4,621.1 L 354.0,624.8 L 352.8,629.2 L 350.8,634.5 L 348.7,640.4 L 343.5,654.5 L 343.1,655.8" fill="none" stroke="#fffdf7" stroke-width="5" stroke-linecap="round" stroke-linejoin="round"/>
<path d="M 905.8,592.2 L 902.9,586.2" fill="none" stroke="#fffdf7" stroke-width="5" stroke-linecap="round" stroke-linejoin="round"/>
<path d="M 442.1,133.3 L 427.4,142.3 L 420.9,145.5 L 413.4,149.9 L 394.0,162.1 L 380.1,173.4 L 367.8,184.7 L 357.4,196.0" fill="none" stroke="#cfb987" stroke-width="8" stroke-linecap="round" stroke-linejoin="round"/>
<path d="M 800.2,375.2 L 809.4,371.3 L 815.2,368.1 L 817.3,366.9 L 821.9,364.4 L 823.1,364.1" fill="none" stroke="#fffdf7" stroke-width="5" stroke-linecap="round" stroke-linejoin="round"/>
<path d="M 460.5,581.4 L 452.8,582.5 L 445.5,583.2 L 443.5,583.0 L 434.0,583.1" fill="none" stroke="#fffdf7" stroke-width="5" stroke-linecap="round" stroke-linejoin="round"/>
<path d="M 777.5,263.2 L 781.4,262.3 L 785.5,263.7 L 818.0,275.5 L 822.1,277.6 L 822.5,281.4 L 814.7,312.3 L 813.6,317.7 L 814.0,322.9" fill="none" stroke="#fffdf7" stroke-width="5" stroke-linecap="round" stroke-linejoin="round"/>
<path d="M 344.6,431.4 L 337.5,409.3 L 332.7,395.2 L 327.7,381.7" fill="none" stroke="#fffdf7" stroke-width="5" stroke-linecap="round" stroke-linejoin="round"/>
<path d="M 132.8,103.8 L 137.6,101.2 L 152.8,82.5 L 153.7,80.0 L 153.5,77.6 L 152.9,76.0 L 150.7,72.6 L 131.0,57.0" fill="none" stroke="#fffdf7" stroke-width="5" stroke-linecap="round" stroke-linejoin="round"/>
<path d="M 448.5,698.3 L 449.4,695.5 L 420.1,684.5" fill="none" stroke="#fffdf7" stroke-width="5" stroke-linecap="round" stroke-linejoin="round"/>
<path d="M 865.5,317.4 L 838.3,319.9 L 814.0,322.9" fill="none" stroke="#fffdf7" stroke-width="5" stroke-linecap="round" stroke-linejoin="round"/>
<path d="M 545.0,215.8 L 542.4,225.0 L 541.3,227.3 L 533.2,241.3 L 532.3,242.6 L 531.3,243.3 L 527.5,249.5 L 478.9,335.9 L 463.6,362.3 L 456.0,379.1" fill="none" stroke="#fffdf7" stroke-width="5" stroke-linecap="round" stroke-linejoin="round"/>
<path d="M 127.8,88.2 L 122.0,89.8 L 119.1,89.3 L 101.0,76.3 L 100.0,73.2 L 101.5,68.8 L 110.2,56.2 L 116.9,52.8" fill="none" stroke="#fffdf7" stroke-width="5" stroke-linecap="round" stroke-linejoin="round"/>
<path d="M 281.7,709.6 L 275.1,705.9 L 268.2,703.3 L 263.5,702.2 L 256.7,701.3" fill="none" stroke="#fffdf7" stroke-width="5" stroke-linecap="round" stroke-linejoin="round"/>
<path d="M 434.0,583.1 L 426.8,607.7 L 426.1,611.4 L 425.9,614.7 L 425.9,616.3 L 426.0,622.4 L 427.1,630.5 L 428.7,645.8 L 429.2,651.1 L 428.9,655.4 L 428.1,661.6 L 426.9,665.8 L 424.5,672.4 L 422.1,679.0 L 422.0,679.2 L 420.1,684.5" fill="none" stroke="#fffdf7" stroke-width="5" stroke-linecap="round" stroke-linejoin="round"/>
<path d="M 256.7,701.3 L 252.7,701.6 L 246.3,702.4 L 240.0,704.3" fill="none" stroke="#fffdf7" stroke-width="5" stroke-linecap="round" stroke-linejoin="round"/>
<path d="M 783.7,378.7 L 800.2,375.2" fill="none" stroke="#fffdf7" stroke-width="5" stroke-linecap="round" stroke-linejoin="round"/>
<path d="M 163.8,354.2 L 169.6,358.4 L 182.8,366.1 L 190.0,371.0 L 206.2,385.1 L 223.4,402.2 L 227.1,405.7 L 228.7,407.1 L 231.8,408.9 L 249.5,417.7" fill="none" stroke="#fffdf7" stroke-width="5" stroke-linecap="round" stroke-linejoin="round"/>
<path d="M 222.8,713.3 L 215.3,702.1 L 208.2,692.6 L 203.5,687.1 L 197.6,681.4 L 190.4,675.0 L 182.6,669.2 L 172.3,662.9 L 158.7,655.7" fill="none" stroke="#cfb987" stroke-width="8" stroke-linecap="round" stroke-linejoin="round"/>
<path d="M 223.3,478.8 L 202.1,528.0 L 185.1,565.7 L 175.9,587.9 L 174.8,590.4" fill="none" stroke="#cfb987" stroke-width="8" stroke-linecap="round" stroke-linejoin="round"/>
<path d="M 271.7,627.0 L 185.8,594.6" fill="none" stroke="#fffdf7" stroke-width="5" stroke-linecap="round" stroke-linejoin="round"/>
<path d="M 946.7,348.9 L 936.7,351.6" fill="none" stroke="#fffdf7" stroke-width="5" stroke-linecap="round" stroke-linejoin="round"/>
<path d="M 814.0,322.9 L 800.8,327.6 L 795.2,327.8 L 789.6,326.7 L 764.2,317.0 L 760.5,313.9 L 760.2,309.7 L 775.1,267.3 L 777.5,263.2" fill="none" stroke="#fffdf7" stroke-width="5" stroke-linecap="round" stroke-linejoin="round"/>
<path d="M 340.4,180.9 L 353.0,167.8 L 364.1,161.7 L 375.2,156.5 L 389.6,150.1" fill="none" stroke="#fffdf7" stroke-width="5" stroke-linecap="round" stroke-linejoin="round"/>
<path d="M 847.8,230.9 L 848.8,230.1 L 849.3,229.0 L 876.8,171.8 L 876.8,169.6 L 876.0,167.6 L 873.7,165.5 L 870.0,164.1 L 855.0,159.8" fill="none" stroke="#fffdf7" stroke-width="5" stroke-linecap="round" stroke-linejoin="round"/>
<path d="M 918.5,142.0 L 910.8,161.6" fill="none" stroke="#fffdf7" stroke-width="5" stroke-linecap="round" stroke-linejoin="round"/>
<path d="M 116.9,52.8 L 117.5,54.3 L 127.8,88.2" fill="none" stroke="#fffdf7" stroke-width="5" stroke-linecap="round" stroke-linejoin="round"/>
<path d="M 148.6,652.6 L 133.7,646.7 L 125.4,643.2 L 109.8,637.4 L 92.6,632.2 L 81.0,629.9 L 65.9,628.1 L 56.7,627.8" fill="none" stroke="#fffdf7" stroke-width="5" stroke-linecap="round" stroke-linejoin="round"/>
<path d="M 913.2,92.9 L 922.0,87.2 L 938.2,77.8 L 942.3,77.9 L 946.6,80.7 L 962.9,91.9 L 963.9,95.7 L 961.7,97.7 L 958.8,99.1 L 929.1,98.6 L 924.1,100.2" fill="none" stroke="#fffdf7" stroke-width="5" stroke-linecap="round" stroke-linejoin="round"/>
<path d="M 902.9,586.2 L 891.7,591.1 L 869.1,601.3 L 735.9,653.6 L 724.4,657.5 L 712.1,660.8 L 676.5,668.0 L 666.3,670.5 L 654.4,674.7 L 634.9,684.1" fill="none" stroke="#cfb987" stroke-width="8" stroke-linecap="round" stroke-linejoin="round"/>
<path d="M 740.6,86.2 L 722.2,108.6" fill="none" stroke="#fffdf7" stroke-width="5" stroke-linecap="round" stroke-linejoin="round"/>
<path d="M 913.2,92.9 L 924.1,100.2" fill="none" stroke="#fffdf7" stroke-width="5" stroke-linecap="round" stroke-linejoin="round"/>
<path d="M 13.7,125.9 L 12.0,116.3 L 9.4,108.6 L 9.5,105.0 L 11.8,101.3 L 16.3,93.3 L 19.8,92.4 L 23.1,93.0 L 45.9,108.7" fill="none" stroke="#fffdf7" stroke-width="5" stroke-linecap="round" stroke-linejoin="round"/>
<path d="M 196.0,569.8 L 235.9,484.0" fill="none" stroke="#cfb987" stroke-width="8" stroke-linecap="round" stroke-linejoin="round"/>
<path d="M 434.0,583.1 L 421.6,576.0 L 418.3,574.0 L 414.2,570.8 L 408.6,565.5 L 363.4,518.4 L 357.9,513.4 L 354.0,510.6 L 350.3,508.6 L 344.0,506.6 L 335.2,504.6 L 329.0,504.0" fill="none" stroke="#fffdf7" stroke-width="5" stroke-linecap="round" stroke-linejoin="round"/>
<path d="M 642.1,703.6 L 635.4,709.4 L 626.5,720.9 L 622.0,730.7 L 619.2,737.6 L 614.2,743.9" fill="none" stroke="#fffdf7" stroke-width="5" stroke-linecap="round" stroke-linejoin="round"/>
<path d="M 305.5,722.3 L 315.3,697.1" fill="none" stroke="#fffdf7" stroke-width="5" stroke-linecap="round" stroke-linejoin="round"/>
<text x="215" y="285" text-anchor="middle" class="roadlabel">Beulah Street</text>
<text x="352" y="345" text-anchor="middle" class="roadlabel">Colette Drive</text>
<text x="675" y="625" text-anchor="middle" class="roadlabel">Kingstowne Village Parkway</text>
<circle cx="466.1" cy="388.3" r="13" fill="#b04834" stroke="white" stroke-width="4"/>
<path d="M 478.1,376.3 L 540.1,330.3" stroke="#b04834" stroke-width="2"/>
<rect x="536.1" y="298.3" width="191" height="52" rx="9" fill="white" stroke="#b04834"/>
<text x="548.1" y="320.3" class="body" font-weight="700">John &amp; Alice</text>
<text x="548.1" y="338.3" class="small">6307 Colette Drive</text>
<circle cx="367.4" cy="447.4" r="12" fill="#356e8a" stroke="white" stroke-width="4"/>
<path d="M 355.4,457.4 L 304.4,487.4" stroke="#356e8a" stroke-width="2"/>
<rect x="126.4" y="479.4" width="181" height="52" rx="9" fill="white" stroke="#356e8a"/>
<text x="138.4" y="501.4" class="body" font-weight="700">Gladys Smith</text>
<text x="138.4" y="519.4" class="small">6330 Miller Drive</text>
<circle cx="473.9" cy="465.0" r="12" fill="#6e5690" stroke="white" stroke-width="4"/>
<path d="M 483.9,475.0 L 525.9,503.0" stroke="#6e5690" stroke-width="2"/>
<rect x="522.9" y="495.0" width="198" height="52" rx="9" fill="white" stroke="#6e5690"/>
<text x="534.9" y="517.0" class="body" font-weight="700">Florence Weatherford</text>
<text x="534.9" y="535.0" class="small">6312 Miller Drive</text>
</g>
<rect x="954" y="98" width="202" height="610" rx="16" fill="white" stroke="#d2dfd5"/>
<text x="976" y="132" class="label">Three parcels</text>
<text x="976" y="165" class="body">John &amp; Alice</text>
<text x="976" y="185" class="small">6307 Colette Drive</text>
<text x="976" y="213" class="body">Gladys Smith</text>
<text x="976" y="233" class="small">6330 Miller Drive</text>
<text x="976" y="261" class="body">Florence</text>
<text x="976" y="281" class="body">Weatherford</text>
<text x="976" y="301" class="small">6312 Miller Drive</text>
<line x1="976" y1="324" x2="1134" y2="324" stroke="#d2dfd5"/>
<text x="976" y="355" class="label">Evidence</text>
<text x="976" y="386" class="small">Family account gives</text>
<text x="976" y="405" class="small">relationships and</text>
<text x="976" y="424" class="small">residences. County</text>
<text x="976" y="443" class="small">records confirm</text>
<text x="976" y="462" class="small">names and parcels.</text>
<line x1="976" y1="483" x2="1134" y2="483" stroke="#d2dfd5"/>
<text x="976" y="516" class="label">Map note</text>
<text x="976" y="548" class="small">Roads are current.</text>
<text x="976" y="567" class="small">Pins are approximate</text>
<text x="976" y="586" class="small">address locations.</text>
<text x="44" y="738" class="small">Roads: Fairfax County GIS OpenData_A1. Address point: U.S. Census Geocoder. Generated 26 Sep 2026. North is up.</text>
</svg>